<?xml version="1.0" encoding="utf-8"?>
<!-- Generator: Adobe Illustrator 25.4.1, SVG Export Plug-In . SVG Version: 6.00 Build 0)  -->
<svg version="1.1" id="Layer_1" xmlns="http://www.w3.org/2000/svg" xmlns:xlink="http://www.w3.org/1999/xlink" x="0px" y="0px"
	 viewBox="0 0 315 700" style="enable-background:new 0 0 315 700;" xml:space="preserve">
<style type="text/css">
	.st0{fill-rule:evenodd;clip-rule:evenodd;fill:#DCB964;}
</style>
<desc>Created with Sketch.</desc>
<g id="Group-2" transform="translate(256.000000, 134.000000)">
	<path id="j-copy-17_00000178179693457252309000000001358640571082723461_" class="st0" d="M-108.9,299.1c0-4.9,1.6-9.1,4.8-12.4
		c3.2-3.3,7.2-5.1,12-5.1s8.8,1.8,12,5.1c3.2,3.3,4.8,7.6,4.8,12.4c0,4.9-1.6,9.1-4.8,12.4c-3.2,3.3-7.2,5.1-12,5.1s-8.8-1.6-12-4.9
		C-107.3,308.3-108.9,304.2-108.9,299.1z"/>
	<path id="d-copy-48_00000150809971580113628910000003778519098744629693_" class="st0" d="M-50.7,282.4c0,0,0-68.5,0-205.7V-56.1
		c0-17.7-2.7-30.4-8-38.1S-73.8-106.8-88-109v-7.2L14.3-128v381.5c0,17.7,2.7,30.3,8.1,37.8c5.4,7.5,15.3,12.4,29.5,15.1v8.6H-50.7
		V282.4z"/>
	<path id="g-copy-97_00000173877694686731416890000009337057325241783976_" class="st0" d="M-74.6,140.4c-7.8-5.3-13.1-8.4-15.8-9.7
		c-21.8-10.2-40.8-9.7-40.8-9.7c-16.7,0.6-30.3,8.9-40.5,25c-10.5,16.7-15.8,38.9-15.8,66.8c0,26.9,5.1,48.6,15.5,64.9
		c10.2,16.1,23.7,24.2,40.5,24.4c0,0,0.2,4.3,0.2,12.7c-18.8-0.6-38.4-5.7-59.4-15.3c-8.1,8.1-13.5,14.3-16.1,18.5
		c-2.5,4.1-4,8.9-4,14.3c0,9.9,6.9,15.8,20.6,17.7c6.9,0.8,16.9,1.3,30.1,1.3h60.9c32.7,0,55.9,3.3,69.8,9.9c9.6,4.8,18,11,25,18.8
		s12.4,16.7,16.1,26.8s5.6,20.9,5.6,32.4c0,23.3-6.5,44.1-19.6,62.5S-33.8,534-57.7,544c-21.2,8.9-44.9,14-71.1,15
		c-0.5,0-1.3,0-2.4,0c0-4.6,0-9.2,0-13.9c19,0,33.9-3.3,44-6.4c7.6-2.4,19.6-6.1,33-15c7-4.6,16.3-10.7,24.5-22
		c3.5-4.8,14.7-20.4,14.5-41.3c0-4.8-0.2-12.9-4.9-21.7c-1.3-2.2-3.7-6.4-8-10.2c-5.1-4.6-11.6-8.3-24.1-10.8
		c-10.8-2.4-17.5-2.2-66.8-2.2l0,0c-36.3,0-63.9,1.1-83.5-2.2c-2.7-0.5-7.2-1.4-12.6-3.5c-3-1.3-8.1-3.2-13.4-7.2
		c-9.9-7.3-14.2-16.4-15.5-19.1c-2.9-5.7-4.3-12.1-4.3-19.4c0-7,1.1-13.5,3.3-19.3c2.2-5.7,6.5-12.3,12.7-19.3
		c6.2-7,15.5-15.9,27.4-26.6l5.1-4.5c-18.2-10.5-31.4-22.3-39.8-35.7c-8.4-13.2-12.6-28.7-12.6-46.2c0-18.6,4.8-35.4,14.3-50.4
		c9.6-15,23.1-26.9,40.5-35.7s37.8-13.9,61.4-15.1c0.8,0,22.6-0.8,40,4.6c4.5,1.4,11.5,4.5,21.2,9.2
		C-74.8,124.9-74.8,130.2-74.6,140.4z"/>
</g>
</svg>
